<mxfile host="app.diagrams.net" modified="2023-08-31T03:54:43.003Z" agent="Mozilla/5.0 (Macintosh; Intel Mac OS X 10_15_7) AppleWebKit/605.1.15 (KHTML, like Gecko) Version/16.5 Safari/605.1.15" version="21.7.1" etag="knCNbrxKp2bdxostBa1O" type="github">
  <diagram name="Page-1" id="frRo8XE34aXhd8fxwfoY">
    <mxGraphModel>
      <root>
        <mxCell id="0" />
        <mxCell id="1" parent="0" />
      </root>
    </mxGraphModel>
  </diagram>
</mxfile>
